<mxfile host="app.diagrams.net" modified="2022-03-04T14:15:15.635Z" agent="5.0 (Windows NT 10.0; Win64; x64) AppleWebKit/537.36 (KHTML, like Gecko) Chrome/98.0.4758.102 Safari/537.36" etag="QeqpEAmhyVs_9R6Mr63_" version="16.6.5" type="github">
  <diagram id="fssiE5Jw5R373SFF3usv" name="Page-1">
    <mxGraphModel dx="1037" dy="1393" grid="1" gridSize="10" guides="1" tooltips="1" connect="1" arrows="1" fold="1" page="1" pageScale="1" pageWidth="827" pageHeight="1169" math="0" shadow="0">
      <root>
        <mxCell id="0" />
        <mxCell id="1" parent="0" />
      </root>
    </mxGraphModel>
  </diagram>
</mxfile>
